<?xml version="1.0" standalone="no"?>
<!DOCTYPE svg PUBLIC "-//W3C//DTD SVG 20010904//EN"
        "http://www.w3.org/TR/2001/REC-SVG-20010904/DTD/svg10.dtd">
<svg version="1.0" xmlns="http://www.w3.org/2000/svg"
     width="512.000000pt" height="512.000000pt" viewBox="0 0 512.000000 512.000000"
     preserveAspectRatio="xMidYMid meet">
    <metadata>
        Created by potrace 1.11, written by Peter Selinger 2001-2013
    </metadata>
    <g transform="translate(0.000000,512.000000) scale(0.100000,-0.100000)"
       fill="#000000" stroke="none">
        <path d="M2502 4845 l-28 -24 0 -145 c1 -191 4 -194 181 -201 142 -5 265 -19
362 -41 37 -8 77 -17 88 -18 11 -2 20 -4 20 -6 0 -1 9 -3 20 -5 26 -4 134 -38
209 -65 134 -48 396 -189 396 -212 0 -6 3 -9 6 -5 4 3 32 -13 63 -36 163 -120
323 -290 447 -474 50 -74 178 -330 190 -378 4 -16 11 -36 17 -42 5 -7 6 -13 2
-13 -4 0 -2 -6 4 -14 6 -8 11 -18 10 -22 -1 -5 0 -16 4 -24 6 -17 25 -94 33
-130 2 -14 9 -50 16 -80 6 -30 12 -77 14 -105 1 -27 3 -50 4 -50 1 0 3 -9 6
-20 8 -40 3 -390 -6 -390 -1 0 -3 -20 -5 -45 -2 -25 -6 -58 -10 -75 -3 -16 -8
-43 -11 -60 -3 -16 -12 -57 -20 -90 -8 -33 -16 -64 -17 -70 -2 -5 -6 -16 -10
-22 -5 -7 -6 -13 -2 -13 3 0 -1 -16 -9 -35 -9 -20 -15 -38 -15 -40 -1 -3 -8
-21 -16 -41 -8 -20 -15 -38 -15 -40 0 -10 -86 -183 -102 -206 -11 -16 -17 -28
-14 -28 8 0 -98 -154 -161 -233 -145 -181 -399 -389 -578 -472 -22 -11 -43
-23 -46 -27 -3 -5 -16 -10 -27 -11 -12 -1 -22 -5 -22 -9 0 -4 -4 -8 -10 -8 -5
0 -33 -11 -62 -24 -101 -46 -340 -116 -413 -121 -16 -1 -41 -5 -55 -9 -14 -4
-43 -8 -65 -10 -22 -3 -40 -5 -40 -6 0 -1 -26 -2 -57 -3 -32 -1 -58 -5 -58
-10 0 -4 -8 -3 -19 2 -10 6 -21 7 -25 4 -7 -8 -96 -10 -96 -3 0 3 -11 5 -25 5
-14 0 -25 -4 -25 -8 0 -5 -5 -5 -11 -1 -6 3 -34 8 -62 9 -29 2 -74 7 -102 10
-27 4 -63 8 -80 10 -45 5 -71 11 -175 39 -52 14 -104 28 -115 30 -22 4 -29 7
-125 43 -118 45 -253 115 -370 191 -63 42 -117 78 -120 81 -3 3 -34 31 -70 61
-123 103 -250 245 -348 387 -23 33 -42 66 -42 71 0 6 -4 12 -9 14 -11 4 -122
234 -151 313 -19 53 -25 71 -33 110 -2 6 -6 16 -10 23 -5 6 -6 12 -2 12 3 0 1
8 -4 19 -6 10 -13 38 -16 61 -3 23 -7 45 -10 50 -2 4 -7 25 -10 46 -3 22 -8
50 -10 64 -6 33 -15 146 -19 242 -4 84 -16 105 -63 115 -47 9 -143 9 -143 -1
0 -5 -6 -4 -12 1 -13 10 -90 9 -142 -1 -16 -3 -37 -16 -48 -28 -17 -20 -18
-33 -13 -128 3 -58 8 -125 11 -150 2 -25 6 -61 8 -80 2 -19 8 -55 12 -80 4
-25 8 -55 8 -67 1 -13 5 -23 10 -23 5 0 7 -2 4 -5 -3 -3 4 -40 14 -83 28 -112
34 -134 47 -165 6 -16 9 -33 5 -38 -3 -5 0 -9 5 -9 6 0 11 -8 11 -18 0 -10 3
-22 6 -25 10 -10 54 -120 54 -134 0 -7 4 -13 8 -13 4 0 14 -17 21 -37 41 -113
201 -354 343 -517 81 -93 269 -266 288 -266 5 0 10 -4 10 -8 0 -11 204 -152
219 -152 6 0 11 -4 11 -10 0 -5 4 -10 9 -10 5 0 43 -20 85 -43 150 -86 443
-200 570 -223 16 -3 33 -7 36 -9 4 -3 25 -7 46 -10 22 -4 46 -8 55 -11 9 -2
34 -7 55 -10 22 -2 46 -6 54 -9 15 -4 92 -12 186 -20 65 -6 372 -6 404 -1 14
2 54 7 90 11 79 8 120 15 195 29 17 3 43 8 59 11 16 3 56 13 90 21 34 9 69 16
79 17 9 1 17 5 17 9 0 4 3 7 8 6 10 -3 115 33 130 45 6 5 12 7 12 3 0 -4 13 0
29 8 16 9 31 12 35 9 3 -4 6 -2 6 4 0 6 16 14 35 17 19 4 41 14 50 22 8 9 15
13 15 9 0 -8 129 59 245 128 100 61 111 68 146 100 10 9 19 14 19 11 0 -3 37
25 83 62 82 67 337 319 337 334 0 4 11 20 25 36 30 35 34 39 65 84 14 19 28
37 31 40 3 3 9 12 12 20 4 8 15 27 25 42 38 58 119 206 136 248 10 25 24 59
31 75 37 80 90 234 100 290 2 11 11 44 19 74 8 30 18 75 21 100 7 52 13 86 15
86 1 0 3 20 5 45 2 25 7 65 11 90 9 60 9 361 0 430 -4 30 -9 75 -11 100 -2 25
-6 55 -10 68 -9 38 -12 55 -20 102 -11 66 -11 69 -35 150 -12 41 -23 80 -24
85 -10 34 -66 176 -92 232 -13 28 -24 55 -24 59 0 10 -128 231 -159 274 -143
200 -231 299 -381 430 -34 30 -68 60 -74 65 -6 6 -35 26 -63 45 -29 19 -53 38
-53 43 0 4 -5 7 -10 7 -12 0 -92 51 -102 65 -4 5 -8 7 -8 2 0 -4 -17 4 -39 17
-115 73 -435 201 -606 242 -67 16 -246 56 -265 58 -14 2 -47 7 -75 11 -27 4
-61 9 -75 10 -14 2 -25 4 -25 5 0 2 -18 4 -40 5 -22 2 -53 6 -70 9 -16 4 -67
8 -112 11 -76 4 -85 2 -111 -20z"/>
        <path d="M2325 3221 c-4 -20 -8 -47 -10 -61 -3 -21 -14 -85 -51 -290 -2 -14
-6 -38 -9 -55 -16 -91 -26 -143 -30 -165 -3 -14 -12 -63 -20 -110 -8 -47 -21
-125 -30 -175 -9 -49 -18 -103 -21 -120 -2 -16 -7 -41 -9 -55 -9 -47 2 -51
126 -48 l114 3 26 145 c15 80 29 161 32 180 3 19 12 73 20 120 9 47 18 100 22
119 3 19 8 37 10 41 7 11 197 2 221 -11 32 -17 31 -45 -5 -244 -38 -208 -40
-222 -47 -275 -4 -25 -8 -47 -10 -49 -2 -2 1 -10 7 -18 8 -9 42 -13 125 -13
l113 0 11 58 c12 63 17 90 25 142 3 19 8 42 10 50 2 8 6 31 9 50 3 19 14 85
25 145 34 196 17 283 -65 331 -37 22 -133 55 -153 52 -3 0 -56 0 -118 1 l-111
1 5 33 c3 17 13 76 22 129 10 54 14 104 9 112 -6 11 -32 14 -122 13 l-114 -1
-7 -35z"/>
        <path d="M1319 2958 c0 -7 -2 -24 -5 -38 -2 -14 -6 -36 -8 -50 -2 -14 -11 -63
-20 -110 -26 -144 -75 -423 -81 -460 -3 -19 -7 -46 -10 -60 -3 -14 -7 -38 -10
-55 -3 -16 -16 -93 -30 -169 -16 -90 -21 -143 -15 -151 6 -7 48 -11 121 -11
l113 1 7 28 c4 16 15 75 25 132 9 57 20 108 23 114 4 6 55 11 127 12 204 2
280 25 370 114 106 103 151 214 159 391 5 128 -54 233 -163 286 l-67 33 -267
3 c-217 3 -268 1 -269 -10z m415 -210 c31 -6 62 -18 72 -29 36 -40 19 -200
-31 -285 -31 -53 -83 -72 -214 -81 l-94 -6 7 49 c7 49 58 334 65 362 2 6 143
-1 195 -10z"/>
        <path d="M3210 2893 c-7 -43 -14 -82 -16 -88 -1 -5 -5 -30 -8 -55 -4 -25 -9
-52 -11 -60 -4 -13 -24 -125 -41 -225 -2 -16 -7 -37 -9 -45 -2 -8 -7 -33 -10
-55 -3 -23 -8 -52 -10 -65 -3 -14 -8 -41 -11 -60 -3 -19 -7 -48 -10 -65 -3
-16 -7 -37 -9 -45 -2 -8 -7 -31 -9 -50 -3 -19 -10 -60 -16 -90 -20 -102 -20
-119 -2 -128 9 -5 64 -9 121 -8 122 2 109 -14 137 161 9 61 20 113 23 117 3 4
61 8 128 9 207 2 282 27 378 124 99 100 148 226 148 386 0 70 -4 95 -25 140
-31 69 -78 115 -148 148 -54 26 -59 26 -321 29 l-266 4 -13 -79z m455 -151
c43 -11 67 -62 61 -127 -8 -73 -15 -105 -35 -151 -37 -82 -77 -101 -233 -111
l-97 -6 10 42 c5 22 12 58 15 79 7 48 13 81 19 112 3 14 10 52 15 85 19 104 9
96 118 90 53 -2 111 -8 127 -13z"/>
    </g>
</svg>
